<svg width="100" height="100" viewBox="0 0 100 100" fill="none" xmlns="http://www.w3.org/2000/svg">
<path d="M11.4258 59.4141V76.8457C11.5723 85.9961 26.6309 93.3984 50 93.3984C73.3691 93.3984 88.418 85.9961 88.5742 76.8457V59.4141H11.4258Z" fill="#1B9BDB"/>
<path d="M88.5742 59.3457C88.5742 69.0527 73.457 76.9238 50 76.9238C26.543 76.9238 11.4258 69.0527 11.4258 59.3457C11.4258 49.6387 26.543 41.7676 50 41.7676C73.457 41.7676 88.5742 49.6289 88.5742 59.3457Z" fill="white"/>
<path d="M11.4258 41.8359V57.3145C11.5723 66.4648 26.6309 74.8438 50 74.8438C73.3691 74.8438 88.418 66.4648 88.5742 57.3145V41.8359H11.4258Z" fill="#1B9BDB"/>
<path d="M88.5742 41.7676C88.5742 51.4746 73.457 59.3457 50 59.3457C26.543 59.3457 11.4258 51.4746 11.4258 41.7676C11.4258 32.0605 26.543 24.1895 50 24.1895C73.457 24.1895 88.5742 32.0508 88.5742 41.7676Z" fill="white"/>
<path d="M11.4258 24.2578V39.7363C11.5723 48.8867 26.6309 57.2656 50 57.2656C73.3691 57.2656 88.418 48.8867 88.5742 39.7363V24.2578H11.4258Z" fill="#1B9BDB"/>
<path d="M88.5742 24.1895C88.5742 33.8965 73.457 41.7676 50 41.7676C26.543 41.7676 11.4258 33.8965 11.4258 24.1895C11.4258 14.4824 26.543 6.61133 50 6.61133C73.457 6.61133 88.5742 14.4727 88.5742 24.1895Z" fill="#3ED6FF"/>
</svg>
