<svg width="90" height="90" viewBox="0 0 90 90" fill="none" xmlns="http://www.w3.org/2000/svg">
<path d="M12.4805 80.8594L5.27344 0H84.5508L77.3438 80.8594L44.8242 90" fill="#E34F26"/>
<path d="M45 82.9688L71.1914 75.7617L77.3438 6.50391H45" fill="#EF652A"/>
<path d="M45 36.5625H31.8164L30.9375 26.3672H45V16.5234H44.8242H20.0391L20.2148 19.1602L22.6758 46.582H45V36.5625ZM45 62.4023H44.8242L33.75 59.4141L33.0469 51.5039H27.7734H23.2031L24.4336 67.1484L44.8242 72.7734H45V62.4023Z" fill="#EBEBEB"/>
<path d="M44.8242 36.5625V46.582H57.1289L55.8984 59.4141L44.8242 62.4023V72.7734L65.2148 67.1484L65.3906 65.3906L67.6758 39.1992L68.0273 36.5625H65.2148H44.8242ZM44.8242 16.5234V22.6758V26.3672H68.9062L69.082 24.2578L69.6094 19.1602L69.7852 16.5234H44.8242Z" fill="white"/>
</svg>
