<svg width="90" height="90" viewBox="0 0 90 90" fill="none" xmlns="http://www.w3.org/2000/svg">
<path d="M84.375 5.625H5.625V84.375H84.375V5.625Z" fill="#FFCA28"/>
<path d="M53.4375 71.1222L59.2355 67.2854C59.69 68.713 62.5674 72.1035 66.202 72.1035C69.8366 72.1035 71.5241 70.1184 71.5241 68.8022C71.5241 65.2157 67.8127 63.9512 66.0302 63.344C65.7394 63.245 65.5003 63.1634 65.3366 63.0922C65.2525 63.0557 65.1257 63.007 64.9628 62.9449C62.9803 62.1875 55.6658 59.393 55.6658 51.2924C55.6658 42.3703 64.2763 41.3443 66.2237 41.3443C67.4975 41.3443 73.6225 41.5004 76.673 47.2328L71.048 51.1588C69.815 48.6605 67.7661 47.8353 66.5049 47.8353C63.3895 47.8353 62.7404 50.119 62.7404 51.1588C62.7404 54.0759 66.1252 55.3835 68.983 56.4874C69.7309 56.7762 70.4424 57.051 71.048 57.3373C74.1634 58.8094 78.75 61.2185 78.75 68.8022C78.75 72.6007 75.564 78.7505 67.5433 78.7505C56.7692 78.7505 53.9134 72.2821 53.4375 71.1222Z" fill="#3E3E3E"/>
<path d="M25.3125 71.8838L31.3557 68.0493C31.8291 69.476 33.6693 72.1069 36.3389 72.1069C39.0088 72.1069 40.3754 69.3647 40.3754 68.0493V42.188H47.8074V68.0493C47.9278 71.6164 45.9495 78.7505 37.2184 78.7505C29.1909 78.7505 25.8537 73.9797 25.3125 71.8838Z" fill="#3E3E3E"/>
</svg>
