<svg width="100" height="100" viewBox="0 0 100 100" fill="none" xmlns="http://www.w3.org/2000/svg">
<path d="M53.6641 7.18351C51.4459 5.93604 48.5541 5.94163 46.3341 7.18351C35.2153 13.3196 24.0963 19.4575 12.9755 25.5908C10.8115 26.7292 9.35199 29.0531 9.37527 31.465V68.54C9.35965 70.9991 10.8944 73.3453 13.1142 74.4681C16.3085 76.1675 19.4119 78.0394 22.6639 79.6256C26.4203 81.4716 31.1201 81.8797 34.9225 79.9547C38.0091 78.3594 39.38 74.8109 39.3759 71.55C39.4009 59.3144 39.38 47.0784 39.3856 34.8425C39.4591 34.2988 39.0506 33.7175 38.4575 33.7306C37.0366 33.7081 35.6137 33.7175 34.1928 33.7269C33.6559 33.6763 33.1319 34.1222 33.1725 34.6619C33.1534 46.8188 33.1762 58.9794 33.1609 71.1381C33.1919 72.82 32.0556 74.4363 30.4348 75.0044C26.6912 76.3166 16.0062 69.3788 16.0062 69.3788C15.6141 69.1972 15.3651 68.7719 15.4035 68.3494C15.4035 56.1175 15.4054 43.8853 15.4035 31.6553C15.3496 31.1622 15.6535 30.7181 16.1063 30.5168C27.1885 24.4169 38.265 18.3017 49.3472 12.198C49.7322 11.9411 50.2687 11.9419 50.6528 12.1999C61.735 18.3017 72.8134 24.4113 83.8975 30.5115C84.3519 30.7125 84.6428 31.1641 84.5966 31.6553C84.5947 43.8853 84.6003 56.1175 84.5928 68.3478C84.6256 68.7806 84.4019 69.2 83.9978 69.39C73.0191 75.4569 61.9153 81.3281 51.0359 87.5713C50.5612 87.8434 50.0234 88.1519 49.4916 87.8519C46.6306 86.2694 43.8044 84.6253 40.9528 83.0275C40.6428 82.8341 40.2481 82.7509 39.9247 82.9675C38.6462 83.6413 37.4437 84.1869 35.9756 84.7681C33.9137 85.5844 34.2431 85.9181 36.1028 87.0016C39.4375 88.8888 42.7778 90.7684 46.1125 92.6575C48.3078 94.0275 51.2575 94.125 53.5234 92.8591C64.6441 86.7306 75.7612 80.595 86.8841 74.4666C89.0978 73.3375 90.6403 71.0006 90.6247 68.5397V31.465C90.6462 29.102 89.2425 26.8196 87.1437 25.6644C75.9862 19.4984 64.8234 13.3458 53.6641 7.18351Z" fill="#8CC84B"/>
<path d="M70.4434 35.0194C66.0787 32.6844 60.8862 32.56 56.0359 32.8653C52.5319 33.2116 48.8465 34.1784 46.2937 36.6903C43.6753 39.2153 43.1053 43.2928 44.349 46.5891C45.2403 48.9184 47.4837 50.4331 49.8037 51.2344C52.7922 52.2894 55.9309 52.6156 59.0706 52.9419C61.9344 53.2394 64.7991 53.5372 67.5516 54.3881C68.6759 54.7606 69.9853 55.3306 70.3297 56.5541C70.6478 58.0028 70.2991 59.6869 69.1228 60.6934C65.3866 63.6506 54.9934 63.1975 51.3019 60.87C49.8094 59.8784 49.1662 58.1231 48.9047 56.4503C48.8756 55.9291 48.4559 55.4509 47.89 55.4906C46.4728 55.4738 45.0556 55.4775 43.6384 55.4888C43.144 55.4472 42.63 55.7991 42.6028 56.3038C42.3115 63.9653 49.3481 67.3053 55.9497 68.0406C59.7212 68.4 63.5756 68.3794 67.2897 67.57C70.0815 66.9344 72.8809 65.7638 74.8028 63.6134C77.1728 61 77.6387 57.1091 76.5759 53.8538C75.7634 51.4247 73.4412 49.8666 71.0675 49.065C67.8394 47.9581 64.0137 47.3631 61.09 47.0847C56.8403 46.68 51.7903 46.8453 50.5875 44.0528C50.1078 42.5906 50.5159 40.775 51.8597 39.8756C55.415 37.4641 62.6509 37.7844 66.3328 39.5859C68.0234 40.4325 69.0031 42.1713 69.4075 43.9266C69.4825 44.4422 69.8294 44.9803 70.4262 44.9578C71.8337 44.9859 73.2412 44.9653 74.6484 44.9672C75.1319 45.0009 75.6612 44.7281 75.7556 44.2331C75.6959 40.5644 73.8225 36.8088 70.4434 35.0194Z" fill="#8CC84B"/>
</svg>
