<svg width="90" height="90" viewBox="0 0 90 90" fill="none" xmlns="http://www.w3.org/2000/svg">
<path d="M78.122 17.5646L61.4593 9.50627C59.5204 8.56482 57.2145 8.96176 55.6983 10.4859L23.7827 39.7598L9.87382 29.1571C8.58292 28.1622 6.763 28.2436 5.56322 29.3428L1.10835 33.4241C-0.367332 34.7625 -0.367333 37.0958 1.09569 38.4342L13.1593 49.5L1.09569 60.5658C-0.367333 61.9042 -0.367332 64.2375 1.10835 65.5759L5.56322 69.6572C6.77566 70.7564 8.58292 70.8378 9.87382 69.8429L23.7827 59.2275L55.7135 88.5141C57.217 90.0383 59.5229 90.4352 61.4618 89.4937L78.1398 81.4227C79.8939 80.5754 81 78.7994 81 76.8376V22.1446C81 20.1955 79.8787 18.4068 78.1271 17.5595L78.122 17.5646ZM60.7581 67.9906L36.5272 49.5025L60.7581 31.0145V67.9906Z" fill="#23A8F2"/>
</svg>
